<svg width="185" height="24" viewBox="0 0 185 24" fill="none" xmlns="http://www.w3.org/2000/svg">
<path d="M43.28 17.0351C43.3544 16.9451 43.4349 16.8598 43.4999 16.762C44.8736 14.7155 46.224 12.6535 47.4661 10.5217C47.5946 10.3014 47.6318 10.1167 47.5141 9.86692C47.1285 9.04925 46.9798 8.17572 46.9349 7.27582C46.8698 5.94768 47.1176 4.68782 47.7123 3.49933C48.3442 2.23636 49.2238 1.20302 50.5262 0.591706C51.3532 0.203816 52.2267 0.0781402 53.1327 0.24726C54.0541 0.419483 54.6953 0.967183 55.115 1.7802C55.3488 2.23325 55.4588 2.7282 55.513 3.24022C55.6849 4.89418 55.3039 6.4597 54.7758 8.0035C54.6643 8.32778 54.5435 8.6474 54.4181 8.9965C54.5327 9.02598 54.6023 9.06321 54.6658 9.05546C55.6105 8.93909 56.5537 8.81807 57.4968 8.69549C57.6687 8.67377 57.836 8.61947 58.0079 8.60395C58.2448 8.58223 58.3362 8.45035 58.4028 8.23468C58.8472 6.79018 59.4884 5.44033 60.4145 4.24097C61.8842 2.33411 63.7581 1.01528 66.1167 0.453617C67.8202 0.0486607 69.5269 0.0455575 71.2087 0.583948C72.7094 1.06493 73.8926 1.99431 74.845 3.23246C75.9554 4.67696 76.6213 6.31075 76.9125 8.10435C76.9466 8.31226 76.9667 8.52172 77.0054 8.72808C77.0519 8.97633 77.1107 9.04149 77.3523 9.01046C78.2351 8.89565 79.1147 8.76376 79.9943 8.63498C80.1833 8.60706 80.2483 8.45966 80.2932 8.29674C80.5534 7.34874 80.9375 6.44884 81.4145 5.59238C82.5404 3.56604 84.089 1.97725 86.2138 0.995111C87.1213 0.57619 88.0738 0.335699 89.068 0.236399C90.5052 0.0921043 91.9098 0.205368 93.2726 0.701867C94.8213 1.26663 96.0463 2.26273 97.0204 3.5769C97.9837 4.87556 98.5226 6.3573 98.8277 7.93213C99.0291 8.97012 99.0957 10.0205 99.043 11.074C98.933 13.2881 98.4669 15.4106 97.4014 17.3796C96.2848 19.4416 94.7439 21.0692 92.6176 22.1025C91.5939 22.599 90.5114 22.8721 89.3746 22.9729C88.1744 23.08 87.0036 22.9621 85.8514 22.6316C84.4948 22.2422 83.3704 21.4741 82.4056 20.4594C81.1574 19.1483 80.4295 17.5642 80.0207 15.8249C79.8797 15.2245 79.8147 14.6069 79.7156 13.9972C79.68 13.7722 79.6397 13.7319 79.4368 13.7536C78.6377 13.8358 77.8386 13.9149 77.0395 14.0049C76.6539 14.0484 76.6508 14.0577 76.5578 14.4301C76.2543 15.6511 75.8145 16.8164 75.1795 17.9055C74.1497 19.6681 72.759 21.0676 70.9532 22.0296C69.9264 22.5773 68.8253 22.8767 67.6592 22.9745C66.3056 23.0893 64.9893 22.9497 63.7116 22.5044C61.8083 21.8403 60.3866 20.5742 59.3428 18.8753C58.5003 17.5037 58.0388 15.9956 57.8546 14.4006C57.8391 14.2671 57.8019 14.1353 57.7694 13.9739C57.5758 13.9739 57.393 13.9599 57.2119 13.9754C55.4495 14.1353 53.7026 14.0747 51.9835 13.6093C51.5096 13.4805 51.5081 13.4836 51.2495 13.8932C50.0369 15.8094 48.7995 17.7085 47.4289 19.5161C46.8435 20.2872 46.2039 21.0102 45.4838 21.6603C44.4524 22.5912 43.232 23.0428 41.8521 23.0164C40.5218 22.9916 39.5059 22.4035 38.8694 21.2073C38.4621 20.4423 38.2577 19.6154 38.0982 18.7744C37.9185 17.8249 37.8504 16.8613 37.7931 15.8978C37.7451 15.0957 37.6909 14.292 37.632 13.4898C37.6243 13.3781 37.5825 13.2679 37.5561 13.1562C37.5282 13.1547 37.4988 13.1516 37.4709 13.15C37.4075 13.2912 37.3378 13.4309 37.2836 13.5767C36.6378 15.2788 35.9656 16.97 35.1417 18.596C34.6648 19.5378 34.1289 20.4408 33.446 21.2523C32.6112 22.2422 31.5752 22.8426 30.2696 22.9791C29.7555 23.0334 29.2568 23.0195 28.7581 22.9186C27.6075 22.689 26.8037 21.9861 26.2617 20.9807C26.0232 20.537 25.8668 20.0498 25.684 19.5766C25.605 19.3718 25.5555 19.1545 25.4734 18.8768C25.3247 18.9947 25.2117 19.0754 25.1079 19.1685C24.4296 19.7845 23.7714 20.4237 23.0714 21.0149C22.2444 21.7131 21.3415 22.298 20.3101 22.6626C19.1564 23.0691 17.9949 23.1793 16.8272 22.7278C15.8004 22.3306 14.9982 21.6401 14.3896 20.7371C14.1 20.3089 13.8878 19.8295 13.6416 19.3718C13.5781 19.2554 13.5254 19.1328 13.4356 18.9466C13.3163 19.1065 13.2265 19.2151 13.1475 19.3314C12.6473 20.0746 12.0836 20.7604 11.4068 21.3516C10.3506 22.2732 9.14421 22.8364 7.73647 22.9729C6.5378 23.0893 5.38869 22.9388 4.29997 22.4268C2.82409 21.7332 1.86855 20.5447 1.23515 19.0785C0.793774 18.056 0.607939 16.9777 0.544444 15.8668C0.43294 13.9134 0.688464 12.0096 1.31258 10.1648C2.41059 6.91896 4.28138 4.2208 7.09377 2.21774C8.60217 1.14406 10.2623 0.430344 12.1068 0.208471C12.7278 0.133996 13.3566 0.0548669 13.9931 0.169682C14.4732 0.256569 14.8294 0.462927 15.0214 0.91443C15.1221 1.15337 15.2042 1.40007 15.2909 1.64521C15.328 1.74917 15.3575 1.85467 15.4008 1.98966C15.8918 1.94311 16.3688 1.90277 16.8458 1.85157C17.4668 1.78641 18.0816 1.81278 18.6887 1.96328C19.5668 2.17895 19.9818 2.79337 19.8827 3.77861C19.6705 5.8608 19.2183 7.9042 18.8528 9.96157C18.588 11.4588 18.3572 12.9638 18.1451 14.4704C18.063 15.0569 18.0646 15.6558 18.0522 16.2485C18.0429 16.6845 18.1931 17.077 18.5028 17.3935C18.811 17.7085 19.1873 17.8233 19.6194 17.7581C20.0701 17.6914 20.4774 17.5037 20.8351 17.2337C21.2595 16.9141 21.6915 16.5914 22.057 16.2097C22.9382 15.2896 23.7822 14.3308 24.6464 13.3936C24.8168 13.209 24.888 13.0104 24.871 12.7575C24.792 11.5721 24.7238 10.3867 24.6572 9.19975C24.6418 8.91582 24.6464 8.63033 24.6433 8.34484C24.6201 6.54969 24.5845 4.75299 24.5829 2.95783C24.5829 2.56839 24.6634 2.16964 24.7641 1.79106C24.9329 1.15027 25.3572 0.711176 25.9783 0.483097C26.9075 0.141754 27.8645 0.0781402 28.8278 0.286049C29.6966 0.473788 30.169 1.02614 30.2325 1.92915C30.2867 2.70648 30.2867 3.48691 30.3068 4.2658C30.3393 5.52876 30.361 6.79173 30.4044 8.05315C30.4384 9.03063 30.4911 10.0066 30.5468 10.9825C30.6134 12.1555 30.6909 13.3284 30.7683 14.5014C30.8148 15.2058 30.8659 15.9087 30.9201 16.6115C30.9309 16.7419 30.9712 16.8691 30.9975 16.9979C31.0238 17.0041 31.0502 17.0103 31.0765 17.0165C31.1477 16.8955 31.2298 16.7791 31.2871 16.6519C31.9345 15.2322 32.5926 13.8172 33.2214 12.3898C34.5145 9.45421 35.7055 6.47832 36.8313 3.4745C37.0002 3.023 37.1581 2.56529 37.3501 2.12309C37.6181 1.50247 37.9464 0.909775 38.5752 0.5855C38.888 0.424138 39.238 0.31708 39.5833 0.237951C40.1331 0.113826 40.6937 0.155718 41.2389 0.287601C41.9373 0.455169 42.3136 0.911327 42.4128 1.69486C42.4577 2.05017 42.4809 2.40858 42.4855 2.76699C42.5026 3.75844 42.4886 4.74988 42.5165 5.74133C42.5506 6.99033 42.6063 8.23934 42.6636 9.48834C42.7024 10.3417 42.7473 11.1935 42.8046 12.0453C42.8897 13.316 42.9889 14.5868 43.0802 15.8575C43.1081 16.2376 43.1329 16.6178 43.1592 16.9963C43.1995 17.0087 43.2382 17.0196 43.2785 17.032V17.0351H43.28ZM93.1007 10.6349C93.0822 10.3665 93.0667 9.84675 93.0078 9.33008C92.918 8.56361 92.7461 7.81576 92.3682 7.13308C91.9826 6.43487 91.487 5.82356 90.7282 5.52566C89.5311 5.05709 88.4656 5.3643 87.5426 6.2068C86.6892 6.98723 86.2479 8.0066 85.9784 9.10666C85.774 9.93829 85.7105 10.787 85.6547 11.6419C85.5866 12.6644 85.6578 13.6698 85.8452 14.669C85.9939 15.4572 86.2928 16.1895 86.8364 16.7993C87.6153 17.6713 88.5709 18.0483 89.7339 17.7969C90.3581 17.662 90.8707 17.3222 91.3043 16.8598C91.8912 16.2361 92.3001 15.5053 92.5618 14.6938C92.9614 13.4557 93.0775 12.1772 93.0992 10.6334L93.1007 10.6349ZM68.5466 5.25724C68.4273 5.23862 68.3189 5.20449 68.2152 5.21069C67.5121 5.25104 66.8508 5.42946 66.2654 5.84063C65.4167 6.43487 64.8468 7.24634 64.4426 8.18348C63.8495 9.56282 63.7333 11.0306 63.7085 12.5046C63.7008 13.0088 63.7643 13.5162 63.8324 14.0173C63.9718 15.0522 64.3125 16.0111 65.0032 16.8195C65.8023 17.7535 66.7888 18.1553 68.0123 17.8916C69.1382 17.6495 69.9233 16.9482 70.5227 16.0064C71.0353 15.2012 71.3017 14.3044 71.4999 13.3781C71.5556 13.1143 71.5154 12.9468 71.2862 12.7792C69.9342 11.7846 69.1242 10.427 68.703 8.81962C68.4258 7.76301 68.418 6.69243 68.545 5.61565C68.5574 5.50859 68.5466 5.39843 68.5466 5.25879V5.25724ZM14.1031 4.57145C13.9497 4.56059 13.8537 4.54197 13.7593 4.54973C12.6597 4.64438 11.6716 5.03227 10.7796 5.67771C9.58093 6.54503 8.69354 7.67612 8.00129 8.96857C7.19753 10.4705 6.72364 12.0763 6.54399 13.766C6.48979 14.2811 6.46037 14.804 6.46966 15.3206C6.48205 15.9537 6.57187 16.5774 6.88625 17.1468C7.27497 17.8497 8.07098 18.3043 9.01721 18.1957C9.72805 18.115 10.2422 17.6945 10.6882 17.1794C11.5632 16.1678 12.0278 14.9591 12.2942 13.6729C12.892 10.7792 13.4619 7.88093 14.0427 4.98572C14.0659 4.8678 14.0783 4.74678 14.1031 4.5699V4.57145Z" fill="white"/>
<path d="M172.024 11.7491C172.024 13.7305 172.042 15.7134 172.018 17.6947C172.006 18.8398 171.856 19.9662 171.287 20.9949C170.615 22.2098 169.609 22.9793 168.232 23.1733C167.115 23.3315 165.985 23.3533 164.873 23.1097C163.242 22.7528 162.238 21.7117 161.765 20.14C161.557 19.4511 161.459 18.7405 161.459 18.0174C161.461 13.8422 161.459 9.66851 161.461 5.49327C161.461 4.66008 161.574 3.83931 161.827 3.04336C162.198 1.86728 162.884 0.953408 164.04 0.441394C164.577 0.202454 165.15 0.065917 165.729 0.0472983C166.519 0.0209218 167.315 0.0240249 168.1 0.0984997C170.031 0.283135 171.228 1.40336 171.713 3.26523C171.846 3.77569 171.939 4.31098 171.952 4.83696C172.006 7.13947 172.023 9.44198 172.054 11.7445H172.024V11.7491ZM167.855 11.6778C167.855 9.58317 167.859 7.49012 167.852 5.39552C167.852 5.15037 167.829 4.89747 167.763 4.66318C167.605 4.10773 167.214 3.8781 166.561 3.91378C166.082 3.94016 165.738 4.25512 165.649 4.78576C165.599 5.07745 165.574 5.3769 165.574 5.6717C165.57 8.58397 165.571 11.4947 165.571 14.407V17.7521C165.571 18.1012 165.605 18.4472 165.773 18.7622C165.977 19.1485 166.398 19.358 166.863 19.313C167.358 19.2649 167.645 19.0492 167.775 18.5807C167.831 18.3821 167.851 18.1664 167.852 17.9585C167.857 15.8639 167.855 13.7708 167.855 11.6762V11.6778Z" fill="white"/>
<path d="M141.697 11.6278V0.69864C141.703 0.34023 141.714 0.324715 142.079 0.324715C144.011 0.324715 145.943 0.310751 147.874 0.335575C148.35 0.341782 148.835 0.434875 149.296 0.557448C150.462 0.86776 151.165 1.66681 151.514 2.79945C151.715 3.45421 151.803 4.13379 151.805 4.81337C151.816 9.31134 151.819 13.8093 151.803 18.3073C151.8 19.1606 151.684 20.0093 151.35 20.813C150.887 21.9224 150.039 22.5648 148.883 22.7944C148.401 22.8906 147.902 22.9371 147.41 22.9418C145.677 22.9588 143.942 22.948 142.209 22.948C142.11 22.948 142.011 22.948 141.912 22.948C141.779 22.948 141.705 22.8797 141.7 22.7447C141.697 22.633 141.697 22.5213 141.697 22.4096V11.6294V11.6278ZM145.655 11.5363V18.5928C145.655 18.7169 145.66 18.841 145.658 18.9636C145.657 19.1622 145.759 19.2692 145.953 19.2646C146.273 19.2568 146.597 19.2584 146.913 19.2134C147.287 19.1591 147.548 18.9263 147.641 18.5586C147.713 18.2731 147.772 17.9752 147.772 17.6835C147.78 13.5735 147.78 9.46339 147.772 5.35176C147.772 5.07093 147.715 4.78544 147.647 4.51237C147.548 4.11517 147.28 3.87158 146.866 3.82348C146.622 3.79555 146.374 3.78934 146.126 3.7909C145.695 3.7909 145.661 3.83124 145.654 4.25636V11.5363H145.655Z" fill="white"/>
<path d="M128.593 9.70232V0.892577C128.593 0.513997 128.784 0.324707 129.163 0.324707H132.21C132.637 0.324707 132.64 0.32781 132.64 0.763798C132.64 6.40216 132.64 12.0405 132.643 17.6789C132.643 17.9613 132.666 18.2499 132.727 18.5245C132.843 19.0489 133.191 19.3173 133.701 19.3204C134.176 19.3235 134.534 19.0582 134.655 18.5462C134.728 18.2374 134.756 17.9101 134.756 17.5904C134.762 12.9559 134.76 8.32144 134.76 3.68693V0.861546C134.76 0.762246 134.762 0.662947 134.765 0.563647C134.768 0.416249 134.836 0.330913 134.989 0.32781C135.051 0.32781 135.113 0.324707 135.175 0.324707C136.253 0.324707 137.33 0.324707 138.407 0.324707C138.795 0.324707 138.805 0.335568 138.805 0.720354C138.805 6.55732 138.815 12.3927 138.798 18.2297C138.795 19.1994 138.598 20.1474 138.158 21.0303C137.562 22.2265 136.594 22.9216 135.296 23.1699C134.994 23.2273 134.683 23.2552 134.375 23.2536C133.645 23.249 132.908 23.28 132.189 23.1869C130.54 22.9728 129.492 22 128.96 20.4407C128.682 19.623 128.589 18.7789 128.59 17.9194C128.593 15.1809 128.59 12.4424 128.59 9.70388H128.593V9.70232Z" fill="white"/>
<path d="M174.521 17.1062C174.521 16.3754 174.518 15.6446 174.521 14.9123C174.522 14.5523 174.547 14.526 174.897 14.526C175.95 14.5228 177.002 14.5228 178.055 14.526C178.391 14.526 178.411 14.5492 178.413 14.8875C178.416 16.003 178.408 17.1186 178.419 18.2326C178.42 18.4514 178.451 18.6795 178.518 18.8874C178.648 19.2892 178.969 19.5034 179.387 19.5189C179.881 19.5359 180.191 19.3637 180.364 18.9417C180.443 18.7493 180.51 18.5398 180.525 18.335C180.584 17.5065 180.604 16.678 180.443 15.8556C180.313 15.1885 179.952 14.6439 179.511 14.1489C178.594 13.1233 177.671 12.1055 176.746 11.0877C175.783 10.028 175.12 8.81777 174.874 7.39654C174.817 7.06761 174.767 6.73403 174.761 6.40199C174.747 5.52226 174.707 4.63942 174.773 3.76434C174.874 2.44862 175.441 1.36719 176.61 0.665882C177.061 0.394359 177.552 0.217481 178.069 0.141455C179.288 -0.0385257 180.513 -0.0602475 181.724 0.19576C183.195 0.506071 184.078 1.46493 184.287 2.96219C184.372 3.5735 184.411 4.19257 184.429 4.81009C184.453 5.5657 184.437 6.32131 184.434 7.07692C184.432 7.39499 184.411 7.41826 184.096 7.41981C183.056 7.42447 182.016 7.42447 180.976 7.41981C180.651 7.41981 180.63 7.39344 180.629 7.04589C180.626 6.26546 180.632 5.48502 180.624 4.70459C180.621 4.48271 180.599 4.25774 180.551 4.04207C180.463 3.64798 180.169 3.4261 179.746 3.39973C179.317 3.37335 179.004 3.55488 178.851 3.9195C178.828 3.97691 178.801 4.03431 178.792 4.09483C178.65 5.18092 178.643 6.25304 179.274 7.21346C179.517 7.58428 179.8 7.93338 180.091 8.26852C181.002 9.31427 181.937 10.3398 182.839 11.3934C183.435 12.0916 183.94 12.858 184.282 13.7207C184.562 14.4282 184.742 15.1559 184.736 15.9239C184.73 16.8036 184.761 17.6849 184.724 18.5631C184.682 19.5406 184.422 20.4715 183.889 21.3032C183.245 22.3101 182.3 22.8842 181.138 23.0968C180.144 23.2783 179.137 23.2255 178.139 23.1526C177.417 23.0999 176.732 22.8625 176.132 22.4389C175.236 21.8074 174.789 20.9044 174.617 19.8509C174.552 19.449 174.535 19.0394 174.522 18.6314C174.507 18.124 174.519 17.6151 174.519 17.1077L174.521 17.1062Z" fill="white"/>
<path d="M104.017 16.8007C104.017 16.1568 104.014 15.5129 104.017 14.8675C104.019 14.5494 104.041 14.5277 104.357 14.5261C105.422 14.523 106.486 14.5215 107.551 14.5261C107.877 14.5261 107.898 14.5525 107.9 14.8985C107.903 15.8899 107.897 16.8798 107.905 17.8713C107.906 18.1304 107.922 18.3941 107.977 18.6455C108.146 19.4073 108.62 19.5951 109.26 19.5004C109.518 19.4616 109.724 19.3003 109.823 19.0598C109.926 18.8115 110.012 18.5478 110.05 18.284C110.156 17.5067 110.111 16.7278 109.991 15.9535C109.896 15.35 109.613 14.8256 109.219 14.3694C108.646 13.7038 108.049 13.0568 107.466 12.4005C106.9 11.7612 106.309 11.1422 105.777 10.475C104.871 9.3408 104.389 8.02663 104.305 6.57748C104.262 5.81256 104.24 5.04454 104.247 4.27807C104.251 3.66986 104.358 3.07251 104.586 2.50153C105.148 1.10358 106.23 0.357281 107.671 0.129202C108.823 -0.0538817 109.988 -0.0445723 111.141 0.171094C112.789 0.479854 113.607 1.5194 113.831 3.06785C113.895 3.50694 113.91 3.95534 113.917 4.39909C113.929 5.27882 113.923 6.15856 113.92 7.03829C113.92 7.39825 113.901 7.41532 113.54 7.41687C112.537 7.41997 111.535 7.41997 110.531 7.41687C110.197 7.41687 110.167 7.38739 110.164 7.05846C110.159 6.36491 110.167 5.67137 110.159 4.97782C110.156 4.7063 110.138 4.43322 110.102 4.16481C110.042 3.69934 109.744 3.43092 109.288 3.39834C108.807 3.36575 108.467 3.59383 108.332 4.04068C108.318 4.08878 108.295 4.13533 108.292 4.18342C108.182 5.41846 108.228 6.61937 109.082 7.62943C109.577 8.21592 110.093 8.78379 110.593 9.36563C111.327 10.219 112.083 11.0568 112.781 11.9397C113.478 12.8241 113.972 13.8217 114.166 14.9466C114.225 15.2864 114.274 15.6324 114.28 15.9768C114.296 16.7697 114.308 17.5625 114.276 18.3554C114.24 19.201 114.065 20.0248 113.698 20.796C113.116 22.017 112.156 22.7975 110.835 23.0535C109.59 23.2955 108.32 23.3033 107.075 23.0349C105.43 22.6811 104.487 21.6105 104.172 19.9829C104.075 19.4756 104.047 18.9527 104.024 18.4345C103.999 17.8899 104.017 17.3453 104.017 16.7991V16.8007Z" fill="white"/>
<path d="M119.182 4.20975H118.048C117.578 4.20975 117.107 4.21441 116.638 4.2082C116.373 4.2051 116.336 4.17096 116.334 3.90409C116.329 2.8149 116.329 1.72415 116.334 0.634961C116.334 0.366541 116.373 0.341716 116.639 0.327752C116.726 0.323098 116.813 0.327752 116.899 0.327752H125.59C126.04 0.330855 126.046 0.333959 126.047 0.785462C126.049 1.77691 126.047 2.7668 126.047 3.75825V3.9072C126.032 4.17562 126.007 4.2082 125.742 4.21285C125.271 4.21906 124.802 4.21441 124.331 4.21441H123.238C123.205 4.33077 123.167 4.41921 123.159 4.5123C123.147 4.6597 123.151 4.80865 123.151 4.9576V22.3475C123.151 23.027 123.159 22.951 122.547 22.951C121.595 22.951 120.641 22.951 119.688 22.951C119.236 22.951 119.233 22.951 119.233 22.4949V7.7411C119.233 6.73724 119.235 5.73493 119.232 4.73107C119.232 4.57437 119.205 4.41766 119.187 4.2113H119.182V4.20975Z" fill="white"/>
<path d="M154.689 11.6138V0.873894C154.689 0.506175 154.87 0.323091 155.232 0.323091H158.055C158.142 0.323091 158.229 0.326194 158.316 0.323091C158.497 0.316885 158.596 0.396014 158.593 0.585305C158.593 0.672192 158.594 0.759079 158.594 0.845966V22.4359C158.594 22.7762 158.424 22.9464 158.082 22.9464H155.259C154.673 22.9464 154.686 23.0022 154.686 22.3894V11.6122H154.689V11.6138Z" fill="white"/>
</svg>
