<svg width="100" height="24" viewBox="0 0 100 24" fill="none" xmlns="http://www.w3.org/2000/svg">
<path d="M43.28 17.0351C43.3544 16.9451 43.4349 16.8598 43.4999 16.762C44.8736 14.7155 46.224 12.6535 47.4661 10.5217C47.5946 10.3014 47.6318 10.1167 47.5141 9.86692C47.1285 9.04925 46.9798 8.17572 46.9349 7.27582C46.8698 5.94768 47.1176 4.68782 47.7123 3.49933C48.3442 2.23636 49.2238 1.20302 50.5262 0.591706C51.3532 0.203816 52.2267 0.0781402 53.1327 0.24726C54.0541 0.419483 54.6953 0.967183 55.115 1.7802C55.3488 2.23325 55.4588 2.7282 55.513 3.24022C55.6849 4.89418 55.3039 6.4597 54.7758 8.0035C54.6643 8.32778 54.5435 8.6474 54.4181 8.9965C54.5327 9.02598 54.6023 9.06321 54.6658 9.05546C55.6105 8.93909 56.5537 8.81807 57.4968 8.69549C57.6687 8.67377 57.836 8.61947 58.0079 8.60395C58.2448 8.58223 58.3362 8.45035 58.4028 8.23468C58.8472 6.79018 59.4884 5.44033 60.4145 4.24097C61.8842 2.33411 63.7581 1.01528 66.1167 0.453617C67.8202 0.0486607 69.5269 0.0455575 71.2087 0.583948C72.7094 1.06493 73.8926 1.99431 74.845 3.23246C75.9554 4.67696 76.6213 6.31075 76.9125 8.10435C76.9466 8.31226 76.9667 8.52172 77.0054 8.72808C77.0519 8.97633 77.1107 9.04149 77.3523 9.01046C78.2351 8.89565 79.1147 8.76376 79.9943 8.63498C80.1833 8.60706 80.2483 8.45966 80.2932 8.29674C80.5534 7.34874 80.9375 6.44884 81.4145 5.59238C82.5404 3.56604 84.089 1.97725 86.2138 0.995111C87.1213 0.57619 88.0738 0.335699 89.068 0.236399C90.5052 0.0921043 91.9098 0.205368 93.2727 0.701867C94.8213 1.26663 96.0463 2.26273 97.0204 3.5769C97.9837 4.87556 98.5226 6.3573 98.8277 7.93213C99.0291 8.97012 99.0956 10.0205 99.043 11.074C98.933 13.2881 98.4669 15.4106 97.4014 17.3796C96.2848 19.4416 94.7439 21.0692 92.6176 22.1025C91.5939 22.599 90.5114 22.8721 89.3746 22.9729C88.1744 23.08 87.0036 22.9621 85.8514 22.6316C84.4948 22.2422 83.3704 21.4741 82.4056 20.4594C81.1574 19.1483 80.4295 17.5642 80.0207 15.8249C79.8797 15.2245 79.8147 14.6069 79.7156 13.9972C79.68 13.7722 79.6397 13.7319 79.4368 13.7536C78.6377 13.8358 77.8386 13.9149 77.0395 14.0049C76.6539 14.0484 76.6508 14.0577 76.5578 14.4301C76.2543 15.6511 75.8145 16.8164 75.1795 17.9055C74.1497 19.6681 72.759 21.0676 70.9532 22.0296C69.9264 22.5773 68.8253 22.8767 67.6592 22.9745C66.3056 23.0893 64.9893 22.9497 63.7116 22.5044C61.8083 21.8403 60.3866 20.5742 59.3428 18.8753C58.5003 17.5037 58.0388 15.9956 57.8546 14.4006C57.8391 14.2671 57.8019 14.1353 57.7694 13.9739C57.5758 13.9739 57.393 13.9599 57.2118 13.9754C55.4495 14.1353 53.7026 14.0747 51.9835 13.6093C51.5096 13.4805 51.5081 13.4836 51.2495 13.8932C50.0369 15.8094 48.7995 17.7085 47.4289 19.5161C46.8435 20.2872 46.2039 21.0102 45.4838 21.6603C44.4524 22.5912 43.232 23.0428 41.8521 23.0164C40.5218 22.9916 39.5059 22.4035 38.8694 21.2073C38.4621 20.4423 38.2577 19.6154 38.0982 18.7744C37.9185 17.8249 37.8504 16.8613 37.7931 15.8978C37.7451 15.0957 37.6909 14.292 37.632 13.4898C37.6243 13.3781 37.5825 13.2679 37.5561 13.1562C37.5282 13.1547 37.4988 13.1516 37.4709 13.15C37.4075 13.2912 37.3378 13.4309 37.2836 13.5767C36.6378 15.2788 35.9656 16.97 35.1417 18.596C34.6647 19.5378 34.1289 20.4408 33.446 21.2523C32.6112 22.2422 31.5752 22.8426 30.2696 22.9791C29.7555 23.0334 29.2568 23.0195 28.7581 22.9186C27.6075 22.689 26.8037 21.9861 26.2617 20.9807C26.0232 20.537 25.8668 20.0498 25.684 19.5766C25.605 19.3718 25.5555 19.1545 25.4734 18.8768C25.3247 18.9947 25.2117 19.0754 25.1079 19.1685C24.4296 19.7845 23.7714 20.4237 23.0714 21.0149C22.2444 21.7131 21.3415 22.298 20.3101 22.6626C19.1564 23.0691 17.9949 23.1793 16.8272 22.7278C15.8004 22.3306 14.9982 21.6401 14.3896 20.7371C14.1 20.3089 13.8878 19.8295 13.6416 19.3718C13.5781 19.2554 13.5254 19.1328 13.4356 18.9466C13.3163 19.1065 13.2265 19.2151 13.1475 19.3314C12.6473 20.0746 12.0836 20.7604 11.4068 21.3516C10.3506 22.2732 9.14421 22.8364 7.73647 22.9729C6.5378 23.0893 5.38869 22.9388 4.29997 22.4268C2.82409 21.7332 1.86855 20.5447 1.23515 19.0785C0.793774 18.056 0.607939 16.9777 0.544444 15.8668C0.43294 13.9134 0.688464 12.0096 1.31258 10.1648C2.41059 6.91896 4.28138 4.2208 7.09377 2.21774C8.60217 1.14406 10.2623 0.430344 12.1068 0.208471C12.7278 0.133996 13.3566 0.0548669 13.9931 0.169682C14.4732 0.256569 14.8294 0.462927 15.0214 0.91443C15.1221 1.15337 15.2042 1.40007 15.2909 1.64521C15.328 1.74917 15.3575 1.85467 15.4008 1.98966C15.8918 1.94311 16.3688 1.90277 16.8458 1.85157C17.4668 1.78641 18.0816 1.81278 18.6887 1.96328C19.5668 2.17895 19.9818 2.79337 19.8827 3.77861C19.6705 5.8608 19.2183 7.9042 18.8528 9.96157C18.588 11.4588 18.3572 12.9638 18.1451 14.4704C18.063 15.0569 18.0646 15.6558 18.0522 16.2485C18.0429 16.6845 18.1931 17.077 18.5028 17.3935C18.811 17.7085 19.1873 17.8233 19.6194 17.7581C20.0701 17.6914 20.4774 17.5037 20.8351 17.2337C21.2595 16.9141 21.6915 16.5914 22.057 16.2097C22.9382 15.2896 23.7822 14.3308 24.6464 13.3936C24.8168 13.209 24.888 13.0104 24.871 12.7575C24.792 11.5721 24.7238 10.3867 24.6572 9.19975C24.6418 8.91582 24.6464 8.63033 24.6433 8.34484C24.6201 6.54969 24.5845 4.75299 24.5829 2.95783C24.5829 2.56839 24.6634 2.16964 24.7641 1.79106C24.9329 1.15027 25.3572 0.711176 25.9783 0.483097C26.9075 0.141754 27.8645 0.0781402 28.8278 0.286049C29.6966 0.473788 30.169 1.02614 30.2325 1.92915C30.2867 2.70648 30.2867 3.48691 30.3068 4.2658C30.3393 5.52876 30.361 6.79173 30.4044 8.05315C30.4384 9.03063 30.4911 10.0066 30.5468 10.9825C30.6134 12.1555 30.6909 13.3284 30.7683 14.5014C30.8148 15.2058 30.8659 15.9087 30.9201 16.6115C30.9309 16.7419 30.9712 16.8691 30.9975 16.9979C31.0238 17.0041 31.0502 17.0103 31.0765 17.0165C31.1477 16.8955 31.2298 16.7791 31.2871 16.6519C31.9345 15.2322 32.5926 13.8172 33.2214 12.3898C34.5145 9.45421 35.7055 6.47832 36.8313 3.4745C37.0002 3.023 37.1581 2.56529 37.3501 2.12309C37.6181 1.50247 37.9464 0.909775 38.5751 0.5855C38.888 0.424138 39.238 0.31708 39.5833 0.237951C40.1331 0.113826 40.6937 0.155718 41.2389 0.287601C41.9373 0.455169 42.3136 0.911327 42.4128 1.69486C42.4577 2.05017 42.4809 2.40858 42.4855 2.76699C42.5026 3.75844 42.4886 4.74988 42.5165 5.74133C42.5506 6.99033 42.6063 8.23934 42.6636 9.48834C42.7024 10.3417 42.7473 11.1935 42.8046 12.0453C42.8897 13.316 42.9889 14.5868 43.0802 15.8575C43.1081 16.2376 43.1329 16.6178 43.1592 16.9963C43.1995 17.0087 43.2382 17.0196 43.2785 17.032V17.0351H43.28ZM93.1007 10.6349C93.0822 10.3665 93.0667 9.84675 93.0078 9.33008C92.918 8.56361 92.7461 7.81576 92.3682 7.13308C91.9826 6.43487 91.487 5.82356 90.7282 5.52566C89.5311 5.05709 88.4656 5.3643 87.5426 6.2068C86.6892 6.98723 86.2479 8.0066 85.9784 9.10666C85.774 9.93829 85.7105 10.787 85.6547 11.6419C85.5866 12.6644 85.6578 13.6698 85.8452 14.669C85.9939 15.4572 86.2928 16.1895 86.8364 16.7993C87.6153 17.6713 88.5709 18.0483 89.7339 17.7969C90.3581 17.662 90.8707 17.3222 91.3043 16.8598C91.8912 16.2361 92.3001 15.5053 92.5618 14.6938C92.9614 13.4557 93.0775 12.1772 93.0992 10.6334L93.1007 10.6349ZM68.5466 5.25724C68.4273 5.23862 68.3189 5.20449 68.2152 5.21069C67.5121 5.25104 66.8508 5.42946 66.2654 5.84063C65.4167 6.43487 64.8468 7.24634 64.4426 8.18348C63.8495 9.56282 63.7333 11.0306 63.7085 12.5046C63.7008 13.0088 63.7643 13.5162 63.8324 14.0173C63.9718 15.0522 64.3125 16.0111 65.0032 16.8195C65.8023 17.7535 66.7888 18.1553 68.0123 17.8916C69.1382 17.6495 69.9233 16.9482 70.5227 16.0064C71.0353 15.2012 71.3017 14.3044 71.4999 13.3781C71.5556 13.1143 71.5154 12.9468 71.2862 12.7792C69.9342 11.7846 69.1242 10.427 68.703 8.81962C68.4258 7.76301 68.418 6.69243 68.545 5.61565C68.5574 5.50859 68.5466 5.39843 68.5466 5.25879V5.25724ZM14.1031 4.57145C13.9497 4.56059 13.8537 4.54197 13.7593 4.54973C12.6597 4.64438 11.6716 5.03227 10.7796 5.67771C9.58093 6.54503 8.69354 7.67612 8.00129 8.96857C7.19753 10.4705 6.72364 12.0763 6.54399 13.766C6.48979 14.2811 6.46037 14.804 6.46966 15.3206C6.48205 15.9537 6.57187 16.5774 6.88625 17.1468C7.27497 17.8497 8.07098 18.3043 9.01721 18.1957C9.72806 18.115 10.2422 17.6945 10.6882 17.1794C11.5632 16.1678 12.0278 14.9591 12.2942 13.6729C12.892 10.7792 13.4619 7.88093 14.0427 4.98572C14.0659 4.8678 14.0783 4.74678 14.1031 4.5699V4.57145Z" fill="white"/>
</svg>
