<svg width="45" height="35" viewBox="0 0 45 35" fill="none" xmlns="http://www.w3.org/2000/svg">
<path d="M37.3661 2.85973C34.5107 1.52377 31.4576 0.55285 28.2657 0C27.8737 0.708734 27.4157 1.662 27.0999 2.42031C23.7068 1.91003 20.3449 1.91003 17.0142 2.42031C16.6985 1.662 16.2301 0.708734 15.8346 0C12.6392 0.55285 9.58264 1.52734 6.72726 2.8668C0.967944 11.5699 -0.593312 20.0568 0.187318 28.4232C4.0072 31.2758 7.70912 33.0087 11.3486 34.1426C12.2472 32.9059 13.0486 31.5912 13.739 30.2056C12.4241 29.706 11.1647 29.0894 9.9747 28.3736C10.2904 28.1397 10.5992 27.8952 10.8976 27.6436C18.1557 31.0384 26.0418 31.0384 33.2132 27.6436C33.515 27.8952 33.8237 28.1397 34.136 28.3736C32.9425 29.0929 31.6796 29.7095 30.3647 30.2092C31.0551 31.5912 31.8531 32.9094 32.7552 34.1461C36.3981 33.0122 40.1035 31.2794 43.9234 28.4232C44.8393 18.7244 42.3587 10.3154 37.3661 2.85973ZM14.7278 23.2779C12.549 23.2779 10.7622 21.2439 10.7622 18.7669C10.7622 16.2899 12.5109 14.2524 14.7278 14.2524C16.9449 14.2524 18.7316 16.2864 18.6934 18.7669C18.6969 21.2439 16.9449 23.2779 14.7278 23.2779ZM29.3829 23.2779C27.2041 23.2779 25.4173 21.2439 25.4173 18.7669C25.4173 16.2899 27.1658 14.2524 29.3829 14.2524C31.5998 14.2524 33.3866 16.2864 33.3485 18.7669C33.3485 21.2439 31.5998 23.2779 29.3829 23.2779Z" fill="white"/>
</svg>
