<svg width="49" height="35" viewBox="0 0 49 35" fill="none" xmlns="http://www.w3.org/2000/svg">
<path d="M48.5613 3.16748L45.4988 5.94997L32.6011 17.7099L45.4988 29.2776L48.4913 31.9551C48.8294 31.2695 49.0031 30.5147 48.9988 29.7501V5.25021C48.9991 4.53327 48.8502 3.82399 48.5613 3.16771V3.16748Z" fill="white"/>
<path d="M30.0126 20.0898L28.0526 21.8748C27.0837 22.7651 25.8159 23.2593 24.5001 23.2593C23.1843 23.2593 21.9165 22.7651 20.9476 21.8748L19.0051 20.0898L6.3529 31.4998L3.04541 34.4923C3.73099 34.8304 4.48587 35.0042 5.2504 34.9998H43.7503C44.5464 35.0009 45.3317 34.8151 46.0428 34.4573L42.7353 31.4998L30.0126 20.0898Z" fill="white"/>
<path d="M16.415 17.7099L3.50007 5.80991L0.507579 3.04492C0.169429 3.7305 -0.0043056 4.48538 8.10492e-05 5.24991V29.7498C-0.00101272 30.5459 0.18474 31.3312 0.542579 32.0423L3.50007 29.3648L16.415 17.7099Z" fill="white"/>
<path d="M23.3101 19.2849C23.6321 19.5885 24.0577 19.7576 24.5001 19.7576C24.9425 19.7576 25.3682 19.5885 25.6901 19.2849L42.9978 3.49999L46.1828 0.595003C45.4294 0.20964 44.5965 0.00583812 43.7503 4.80242e-06H5.25042C4.44869 -0.00108897 3.65774 0.184664 2.94043 0.542503L6.16042 3.49999L23.3101 19.2849Z" fill="white"/>
</svg>
