<svg width="35" height="35" viewBox="0 0 35 35" fill="none" xmlns="http://www.w3.org/2000/svg">
<path fill-rule="evenodd" clip-rule="evenodd" d="M17.5 0C12.7473 0 12.1513 0.0201452 10.2848 0.105311C8.42211 0.190269 7.14998 0.486127 6.03684 0.918764C4.88606 1.36592 3.91013 1.96431 2.93718 2.93718C1.9643 3.91012 1.36592 4.88606 0.918762 6.03684C0.486126 7.14998 0.190269 8.42212 0.105311 10.2848C0.0201452 12.1514 0 12.7473 0 17.5001C0 22.2527 0.0201452 22.8487 0.105311 24.7153C0.190269 26.5779 0.486126 27.8501 0.918762 28.9632C1.36592 30.1141 1.9643 31.09 2.93718 32.0629C3.91013 33.0357 4.88606 33.6341 6.03684 34.0814C7.14998 34.5139 8.42211 34.8098 10.2848 34.8948C12.1513 34.9799 12.7473 35 17.5 35C22.2528 35 22.8487 34.9799 24.7152 34.8948C26.5779 34.8098 27.85 34.5139 28.9632 34.0814C30.1139 33.6341 31.0898 33.0357 32.0629 32.0629C33.0357 31.09 33.6341 30.1141 34.0814 28.9632C34.5139 27.8501 34.8098 26.5779 34.8947 24.7153C34.9799 22.8487 35 22.2527 35 17.5001C35 12.7473 34.9799 12.1514 34.8947 10.2848C34.8098 8.42212 34.5139 7.14998 34.0814 6.03684C33.6341 4.88606 33.0357 3.91012 32.0629 2.93718C31.0898 1.96431 30.1139 1.36592 28.9632 0.918764C27.85 0.486127 26.5779 0.190269 24.7152 0.105311C22.8487 0.0201452 22.2528 0 17.5 0ZM11.6667 17.5001C11.6667 20.7217 14.2783 23.3334 17.5 23.3334C20.7217 23.3334 23.3334 20.7217 23.3334 17.5001C23.3334 14.2783 20.7217 11.6667 17.5 11.6667C14.2783 11.6667 11.6667 14.2783 11.6667 17.5001ZM8.51353 17.5001C8.51353 12.5369 12.5369 8.51353 17.5 8.51353C22.4631 8.51353 26.4865 12.5369 26.4865 17.5001C26.4865 22.4631 22.4631 26.4865 17.5 26.4865C12.5369 26.4865 8.51353 22.4631 8.51353 17.5001ZM26.8415 10.2585C28.0014 10.2585 28.9416 9.3183 28.9416 8.15849C28.9416 6.99867 28.0014 6.05845 26.8415 6.05845C25.6818 6.05845 24.7416 6.99867 24.7416 8.15849C24.7416 9.3183 25.6818 10.2585 26.8415 10.2585Z" fill="white"/>
</svg>
