<svg width="39" height="35" viewBox="0 0 39 35" fill="none" xmlns="http://www.w3.org/2000/svg">
<mask id="mask0_510_131" style="mask-type:alpha" maskUnits="userSpaceOnUse" x="0" y="0" width="39" height="35">
<path d="M2.29466 19.8206L2.42961 19.6085L10.5674 6.87789C10.6864 6.69151 10.966 6.71078 11.0559 6.91324C12.4155 9.96009 13.5886 13.7494 13.039 16.1085C12.8044 17.0791 12.1616 18.3936 11.4384 19.6085C11.3452 19.7853 11.2424 19.9588 11.1331 20.1259C11.0817 20.2031 10.9949 20.2481 10.9017 20.2481H2.53247C2.30748 20.2481 2.17572 20.0038 2.29466 19.8206Z" fill="white"/>
<path d="M38.5678 22.1861V24.2013C38.5678 24.317 38.4971 24.4198 38.3942 24.4648C37.7643 24.7348 35.6077 25.7247 34.711 26.9717C32.4226 30.1568 30.6743 34.711 26.766 34.711H10.4615C4.6828 34.711 0 30.0122 0 24.2141V24.0277C0 23.8735 0.125317 23.7481 0.279602 23.7481H9.36878C9.54872 23.7481 9.68048 23.9153 9.66447 24.092C9.60015 24.6834 9.70945 25.2876 9.98905 25.8372C10.529 26.9332 11.6475 27.6178 12.8559 27.6178H17.3555V24.1049H12.9073C12.6792 24.1049 12.5442 23.8413 12.676 23.6549C12.7241 23.581 12.7788 23.5039 12.8366 23.4171C13.2577 22.8193 13.8587 21.8905 14.4565 20.8331C14.8647 20.1196 15.26 19.3578 15.5782 18.5929C15.6425 18.4547 15.6938 18.3133 15.7453 18.175C15.8321 17.9308 15.9221 17.7026 15.9863 17.4744C16.0507 17.2816 16.102 17.0791 16.1534 16.8895C16.3045 16.2402 16.3688 15.5524 16.3688 14.839C16.3688 14.5594 16.356 14.2669 16.3303 13.9873C16.3174 13.6819 16.2788 13.3766 16.2402 13.0712C16.2145 12.8013 16.1663 12.5345 16.1149 12.2549C16.0507 11.8467 15.9606 11.4418 15.8578 11.0336L15.8224 10.8794C15.7453 10.5997 15.681 10.333 15.5911 10.0534C15.3371 9.17589 15.0447 8.32101 14.7361 7.52074C14.6236 7.20254 14.495 6.89722 14.3665 6.5919C14.1769 6.1323 13.984 5.71449 13.8073 5.31914C13.7173 5.13915 13.6402 4.97522 13.563 4.80811C13.4762 4.61848 13.3863 4.42885 13.2962 4.24891C13.232 4.1107 13.158 3.98213 13.1066 3.85356L12.557 2.83794C12.4799 2.69974 12.6085 2.53582 12.7595 2.57761L16.1985 3.50964H16.2081C16.2145 3.50964 16.2178 3.51289 16.221 3.51289L16.6741 3.63821L17.1723 3.77967L17.3555 3.83104V1.78698C17.3555 0.800267 18.1461 0 19.1232 0C19.6117 0 20.0553 0.199269 20.3735 0.523856C20.6916 0.848505 20.8909 1.29203 20.8909 1.78698V4.821L21.2573 4.9238C21.2862 4.93349 21.3151 4.94632 21.3408 4.96559C21.4309 5.0331 21.5594 5.1327 21.7233 5.25489C21.8519 5.35768 21.9901 5.48306 22.1572 5.61163C22.4882 5.87835 22.8836 6.22227 23.3174 6.61762C23.4331 6.71722 23.5456 6.82008 23.6485 6.92293C24.2077 7.4436 24.8345 8.05423 25.4323 8.72918C25.5994 8.91882 25.7633 9.11164 25.9304 9.3141C26.0975 9.51982 26.2743 9.72228 26.4286 9.9248C26.6311 10.1948 26.8496 10.4744 27.0392 10.7669C27.1292 10.9051 27.2321 11.0465 27.3189 11.1847C27.5631 11.5542 27.7785 11.9368 27.9842 12.3192C28.0709 12.496 28.1609 12.6888 28.2381 12.8784C28.4662 13.3895 28.6462 13.9101 28.7619 14.4308C28.7973 14.5433 28.823 14.6654 28.8359 14.7747V14.8004C28.8744 14.9546 28.8873 15.1186 28.9001 15.2857C28.9515 15.8192 28.9258 16.3527 28.8101 16.8895C28.7619 17.1177 28.6977 17.333 28.6205 17.5612C28.5434 17.7798 28.4662 18.0079 28.3666 18.2233C28.1738 18.67 27.9456 19.1168 27.6756 19.5346C27.5888 19.6889 27.486 19.8528 27.3831 20.0071C27.2706 20.1709 27.1549 20.3252 27.0521 20.4763C26.9107 20.6691 26.7596 20.8716 26.6054 21.0516C26.4672 21.2412 26.3258 21.4309 26.1715 21.598C25.9561 21.8519 25.7504 22.0929 25.5351 22.3244C25.4066 22.4754 25.2683 22.6297 25.1269 22.7679C24.9887 22.9221 24.8473 23.0603 24.7187 23.1889C24.5034 23.4042 24.3234 23.5713 24.1723 23.7095L23.8188 24.0342C23.7674 24.0792 23.6999 24.1049 23.6292 24.1049H20.8909V27.6178H24.3363C25.1076 27.6178 25.8404 27.3446 26.4318 26.8432C26.6343 26.6664 27.5181 25.9015 28.5626 24.7477C28.598 24.7091 28.643 24.6802 28.6945 24.6673L38.211 21.9162C38.3878 21.8647 38.5678 21.9997 38.5678 22.1861Z" fill="white"/>
</mask>
<g mask="url(#mask0_510_131)">
<path d="M49.4267 18.7693C49.4267 36.0451 35.4201 50.0517 18.1443 50.0517C0.868413 50.0517 -13.1382 36.0451 -13.1382 18.7693C-13.1382 1.49341 0.868413 -12.5132 18.1443 -12.5132C35.4238 -12.5132 49.4267 1.49341 49.4267 18.7693Z" fill="white"/>
</g>
</svg>
