<svg width="43" height="35" viewBox="0 0 43 35" fill="none" xmlns="http://www.w3.org/2000/svg">
<path d="M41.9686 4.00593C41.2994 4.30129 40.6113 4.55062 39.9082 4.75308C40.7406 3.81622 41.3752 2.71393 41.7626 1.50771C41.8494 1.23735 41.7594 0.941408 41.5361 0.764537C41.313 0.587583 41.0032 0.566385 40.7576 0.71121C39.2646 1.5925 37.6538 2.22588 35.9647 2.59618C34.2633 0.941656 31.9525 0 29.5636 0C24.521 0 20.4185 4.08277 20.4185 9.10107C20.4185 9.4963 20.4437 9.88938 20.4934 10.277C14.2361 9.73022 8.41868 6.66935 4.42394 1.79256C4.28158 1.61875 4.06226 1.52502 3.83769 1.54298C3.61305 1.56046 3.41111 1.68657 3.29762 1.88041C2.48739 3.264 2.05907 4.84648 2.05907 6.45662C2.05907 8.64962 2.84575 10.7303 4.23549 12.3561C3.8129 12.2105 3.40288 12.0285 3.01149 11.8123C2.8014 11.6958 2.54497 11.6977 2.33621 11.8167C2.12737 11.9359 1.99641 12.1549 1.99084 12.3944C1.98984 12.4347 1.98984 12.475 1.98984 12.5159C1.98984 15.7893 3.76007 18.7364 6.46657 20.3426C6.23402 20.3195 6.00172 20.286 5.77083 20.2421C5.53279 20.1968 5.28809 20.2799 5.12759 20.4606C4.96684 20.6411 4.91359 20.8927 4.98772 21.1225C5.98949 24.2352 8.56869 26.5247 11.6867 27.2227C9.10061 28.8348 6.14325 29.6791 3.0387 29.6791C2.39088 29.6791 1.7394 29.6413 1.10182 29.5662C0.785063 29.5287 0.482205 29.7148 0.37429 30.0147C0.266376 30.3146 0.38078 30.6489 0.650191 30.8209C4.63852 33.3659 9.25012 34.711 13.9863 34.711C23.2969 34.711 29.1215 30.3415 32.368 26.6759C36.4164 22.1052 38.7381 16.0553 38.7381 10.0776C38.7381 9.82785 38.7343 9.57571 38.7266 9.32432C40.3238 8.12671 41.6989 6.6773 42.8179 5.01143C42.9879 4.75846 42.9695 4.42401 42.7726 4.19116C42.5761 3.9579 42.2483 3.88255 41.9686 4.00593Z" fill="white"/>
</svg>
