<?xml version="1.0" encoding="UTF-8"?><svg id="Layer_1" xmlns="http://www.w3.org/2000/svg" viewBox="0 0 1190.48 150.96"><path d="m276.11,110.2c.48-.58,1-1.13,1.42-1.76,8.87-13.19,17.59-26.48,25.61-40.22.83-1.42,1.07-2.61.31-4.22-2.49-5.27-3.45-10.9-3.74-16.7-.42-8.56,1.18-16.68,5.02-24.34,4.08-8.14,9.76-14.8,18.17-18.74,5.34-2.5,10.98-3.31,16.83-2.22,5.95,1.11,10.09,4.64,12.8,9.88,1.51,2.92,2.22,6.11,2.57,9.41,1.11,10.66-1.35,20.75-4.76,30.7-.72,2.09-1.5,4.15-2.31,6.4.74.19,1.19.43,1.6.38,6.1-.75,12.19-1.53,18.28-2.32,1.11-.14,2.19-.49,3.3-.59,1.53-.14,2.12-.99,2.55-2.38,2.87-9.31,7.01-18.01,12.99-25.74,9.49-12.29,21.59-20.79,36.82-24.41,11-2.61,22.02-2.63,32.88.84,9.69,3.1,17.33,9.09,23.48,17.07,7.17,9.31,11.47,19.84,13.35,31.4.22,1.34.35,2.69.6,4.02.3,1.6.68,2.02,2.24,1.82,5.7-.74,11.38-1.59,17.06-2.42,1.22-.18,1.64-1.13,1.93-2.18,1.68-6.11,4.16-11.91,7.24-17.43,7.27-13.06,17.27-23.3,30.99-29.63,5.86-2.7,12.01-4.25,18.43-4.89,9.28-.93,18.35-.2,27.15,3,10,3.64,17.91,10.06,24.2,18.53,6.22,8.37,9.7,17.92,11.67,28.07,1.3,6.69,1.73,13.46,1.39,20.25-.71,14.27-3.72,27.95-10.6,40.64-7.21,13.29-17.16,23.78-30.89,30.44-6.61,3.2-13.6,4.96-20.94,5.61-7.75.69-15.31-.07-22.75-2.2-8.76-2.51-16.02-7.46-22.25-14-8.06-8.45-12.76-18.66-15.4-29.87-.91-3.87-1.33-7.85-1.97-11.78-.23-1.45-.49-1.71-1.8-1.57-5.16.53-10.32,1.04-15.48,1.62-2.49.28-2.51.34-3.11,2.74-1.96,7.87-4.8,15.38-8.9,22.4-6.65,11.36-15.63,20.38-27.29,26.58-6.63,3.53-13.74,5.46-21.27,6.09-8.74.74-17.24-.16-25.49-3.03-12.29-4.28-21.47-12.44-28.21-23.39-5.44-8.84-8.42-18.56-9.61-28.84-.1-.86-.34-1.71-.55-2.75-1.25,0-2.43-.09-3.6.01-11.38,1.03-22.66.64-33.76-2.36-3.06-.83-3.07-.81-4.74,1.83-7.83,12.35-15.82,24.59-24.67,36.24-3.78,4.97-7.91,9.63-12.56,13.82-6.66,6-14.54,8.91-23.45,8.74-8.59-.16-15.15-3.95-19.26-11.66-2.63-4.93-3.95-10.26-4.98-15.68-1.16-6.12-1.6-12.33-1.97-18.54-.31-5.17-.66-10.35-1.04-15.52-.05-.72-.32-1.43-.49-2.15-.18-.01-.37-.03-.55-.04-.41.91-.86,1.81-1.21,2.75-4.17,10.97-8.51,21.87-13.83,32.35-3.08,6.07-6.54,11.89-10.95,17.12-5.39,6.38-12.08,10.25-20.51,11.13-3.32.35-6.54.26-9.76-.39-7.43-1.48-12.62-6.01-16.12-12.49-1.54-2.86-2.55-6-3.73-9.05-.51-1.32-.83-2.72-1.36-4.51-.96.76-1.69,1.28-2.36,1.88-4.38,3.97-8.63,8.09-13.15,11.9-5.34,4.5-11.17,8.27-17.83,10.62-7.45,2.62-14.95,3.33-22.49.42-6.63-2.56-11.81-7.01-15.74-12.83-1.87-2.76-3.24-5.85-4.83-8.8-.41-.75-.75-1.54-1.33-2.74-.77,1.03-1.35,1.73-1.86,2.48-3.23,4.79-6.87,9.21-11.24,13.02-6.82,5.94-14.61,9.57-23.7,10.45-7.74.75-15.16-.22-22.19-3.52-9.53-4.47-15.7-12.13-19.79-21.58-2.85-6.59-4.05-13.54-4.46-20.7-.72-12.59.93-24.86,4.96-36.75C12.21,45,24.29,27.61,42.45,14.7,52.19,7.78,62.91,3.18,74.82,1.75c4.01-.48,8.07-.99,12.18-.25,3.1.56,5.4,1.89,6.64,4.8.65,1.54,1.18,3.13,1.74,4.71.24.67.43,1.35.71,2.22,3.17-.3,6.25-.56,9.33-.89,4.01-.42,7.98-.25,11.9.72,5.67,1.39,8.35,5.35,7.71,11.7-1.37,13.42-4.29,26.59-6.65,39.85-1.71,9.65-3.2,19.35-4.57,29.06-.53,3.78-.52,7.64-.6,11.46-.06,2.81.91,5.34,2.91,7.38,1.99,2.03,4.42,2.77,7.21,2.35,2.91-.43,5.54-1.64,7.85-3.38,2.74-2.06,5.53-4.14,7.89-6.6,5.69-5.93,11.14-12.11,16.72-18.15,1.1-1.19,1.56-2.47,1.45-4.1-.51-7.64-.95-15.28-1.38-22.93-.1-1.83-.07-3.67-.09-5.51-.15-11.57-.38-23.15-.39-34.72,0-2.51.52-5.08,1.17-7.52,1.09-4.13,3.83-6.96,7.84-8.43,6-2.2,12.18-2.61,18.4-1.27,5.61,1.21,8.66,4.77,9.07,10.59.35,5.01.35,10.04.48,15.06.21,8.14.35,16.28.63,24.41.22,6.3.56,12.59.92,18.88.43,7.56.93,15.12,1.43,22.68.3,4.54.63,9.07.98,13.6.07.84.33,1.66.5,2.49.17.04.34.08.51.12.46-.78.99-1.53,1.36-2.35,4.18-9.15,8.43-18.27,12.49-27.47,8.35-18.92,16.04-38.1,23.31-57.46,1.09-2.91,2.11-5.86,3.35-8.71,1.73-4,3.85-7.82,7.91-9.91,2.02-1.04,4.28-1.73,6.51-2.24,3.55-.8,7.17-.53,10.69.32,4.51,1.08,6.94,4.02,7.58,9.07.29,2.29.44,4.6.47,6.91.11,6.39.02,12.78.2,19.17.22,8.05.58,16.1.95,24.15.25,5.5.54,10.99.91,16.48.55,8.19,1.19,16.38,1.78,24.57.18,2.45.34,4.9.51,7.34.26.08.51.15.77.23v.02Zm321.7-41.25c-.12-1.73-.22-5.08-.6-8.41-.58-4.94-1.69-9.76-4.13-14.16-2.49-4.5-5.69-8.44-10.59-10.36-7.73-3.02-14.61-1.04-20.57,4.39-5.51,5.03-8.36,11.6-10.1,18.69-1.32,5.36-1.73,10.83-2.09,16.34-.44,6.59.02,13.07,1.23,19.51.96,5.08,2.89,9.8,6.4,13.73,5.03,5.62,11.2,8.05,18.71,6.43,4.03-.87,7.34-3.06,10.14-6.04,3.79-4.02,6.43-8.73,8.12-13.96,2.58-7.98,3.33-16.22,3.47-26.17h0Zm-158.55-34.66c-.77-.12-1.47-.34-2.14-.3-4.54.26-8.81,1.41-12.59,4.06-5.48,3.83-9.16,9.06-11.77,15.1-3.83,8.89-4.58,18.35-4.74,27.85-.05,3.25.36,6.52.8,9.75.9,6.67,3.1,12.85,7.56,18.06,5.16,6.02,11.53,8.61,19.43,6.91,7.27-1.56,12.34-6.08,16.21-12.15,3.31-5.19,5.03-10.97,6.31-16.94.36-1.7.1-2.78-1.38-3.86-8.73-6.41-13.96-15.16-16.68-25.52-1.79-6.81-1.84-13.71-1.02-20.65.08-.69.01-1.4.01-2.3h0Zm-351.55-4.42c-.99-.07-1.61-.19-2.22-.14-7.1.61-13.48,3.11-19.24,7.27-7.74,5.59-13.47,12.88-17.94,21.21-5.19,9.68-8.25,20.03-9.41,30.92-.35,3.32-.54,6.69-.48,10.02.08,4.08.66,8.1,2.69,11.77,2.51,4.53,7.65,7.46,13.76,6.76,4.59-.52,7.91-3.23,10.79-6.55,5.65-6.52,8.65-14.31,10.37-22.6,3.86-18.65,7.54-37.33,11.29-55.99.15-.76.23-1.54.39-2.68h0Z"/><path d="m1107.43,76.13c0,12.77.11,25.55-.04,38.32-.08,7.38-1.05,14.64-4.72,21.27-4.34,7.83-10.84,12.79-19.73,14.04-7.21,1.02-14.51,1.16-21.69-.41-10.53-2.3-17.01-9.01-20.07-19.14-1.34-4.44-1.97-9.02-1.97-13.68.01-26.91,0-53.81.01-80.72,0-5.37.73-10.66,2.36-15.79,2.4-7.58,6.83-13.47,14.29-16.77,3.47-1.54,7.17-2.42,10.91-2.54,5.1-.17,10.24-.15,15.31.33,12.47,1.19,20.2,8.41,23.33,20.41.86,3.29,1.46,6.74,1.54,10.13.35,14.84.46,29.68.66,44.52h-.19v.03Zm-26.92-.46c0-13.5.02-26.99-.02-40.49,0-1.58-.15-3.21-.58-4.72-1.02-3.58-3.54-5.06-7.76-4.83-3.09.17-5.31,2.2-5.89,5.62-.32,1.88-.48,3.81-.48,5.71-.03,18.77-.02,37.53-.02,56.3v21.56c0,2.25.22,4.48,1.3,6.51,1.32,2.49,4.04,3.84,7.04,3.55,3.2-.31,5.05-1.7,5.89-4.72.36-1.28.49-2.67.5-4.01.03-13.5.02-26.99.02-40.49h0Z"/><path d="m911.6,75.35V4.91c.04-2.31.11-2.41,2.47-2.41,12.47,0,24.95-.09,37.42.07,3.07.04,6.2.64,9.18,1.43,7.53,2,12.07,7.15,14.32,14.45,1.3,4.22,1.87,8.6,1.88,12.98.07,28.99.09,57.98-.01,86.97-.02,5.5-.77,10.97-2.93,16.15-2.99,7.15-8.46,11.29-15.93,12.77-3.11.62-6.33.92-9.51.95-11.19.11-22.39.04-33.58.04-.64,0-1.28,0-1.92,0-.86,0-1.34-.44-1.37-1.31-.02-.72-.02-1.44-.02-2.16v-69.48h0Zm25.56-.59v45.48c0,.8.03,1.6.02,2.39-.01,1.28.65,1.97,1.9,1.94,2.07-.05,4.16-.04,6.2-.33,2.42-.35,4.1-1.85,4.7-4.22.47-1.84.85-3.76.85-5.64.05-26.49.05-52.98,0-79.48,0-1.81-.37-3.65-.81-5.41-.64-2.56-2.37-4.13-5.04-4.44-1.58-.18-3.18-.22-4.78-.21-2.78,0-3,.26-3.05,3v46.92h.01Z"/><path d="m826.99,62.94V6.16c0-2.44,1.23-3.66,3.68-3.66h19.67c2.76,0,2.78.02,2.78,2.83,0,36.34,0,72.68.02,109.02,0,1.82.15,3.68.54,5.45.75,3.38,3,5.11,6.29,5.13,3.07.02,5.38-1.69,6.16-4.99.47-1.99.65-4.1.65-6.16.04-29.87.03-59.74.03-89.61V5.96c0-.64.01-1.28.03-1.92.02-.95.46-1.5,1.45-1.52.4,0,.8-.02,1.2-.02,6.96,0,13.91,0,20.87,0,2.5,0,2.57.07,2.57,2.55,0,37.62.06,75.23-.05,112.85-.02,6.25-1.29,12.36-4.13,18.05-3.85,7.71-10.1,12.19-18.48,13.79-1.95.37-3.96.55-5.95.54-4.71-.03-9.47.17-14.11-.43-10.65-1.38-17.42-7.65-20.85-17.7-1.8-5.27-2.4-10.71-2.39-16.25.02-17.65,0-35.3,0-52.95h.02Z"/><path d="m1123.55,110.66c0-4.71-.02-9.42,0-14.14.01-2.32.17-2.49,2.43-2.49,6.8-.02,13.59-.02,20.39,0,2.17,0,2.3.15,2.31,2.33.02,7.19-.03,14.38.04,21.56.01,1.41.21,2.88.64,4.22.84,2.59,2.91,3.97,5.61,4.07,3.19.11,5.19-1,6.31-3.72.51-1.24.94-2.59,1.04-3.91.38-5.34.51-10.68-.53-15.98-.84-4.3-3.17-7.81-6.02-11-5.92-6.61-11.88-13.17-17.85-19.73-6.22-6.83-10.5-14.63-12.09-23.79-.37-2.12-.69-4.27-.73-6.41-.09-5.67-.35-11.36.08-17,.65-8.48,4.31-15.45,11.86-19.97,2.91-1.75,6.08-2.89,9.42-3.38,7.87-1.16,15.78-1.3,23.6.35,9.5,2,15.2,8.18,16.55,17.83.55,3.94.8,7.93.92,11.91.15,4.87.05,9.74.03,14.61-.01,2.05-.15,2.2-2.18,2.21-6.72.03-13.43.03-20.15,0-2.1,0-2.23-.17-2.24-2.41-.02-5.03.02-10.06-.03-15.09-.02-1.43-.16-2.88-.47-4.27-.57-2.54-2.47-3.97-5.2-4.14-2.77-.17-4.79,1-5.78,3.35-.15.37-.32.74-.38,1.13-.92,7-.96,13.91,3.11,20.1,1.57,2.39,3.4,4.64,5.28,6.8,5.88,6.74,11.92,13.35,17.74,20.14,3.85,4.5,7.11,9.44,9.32,15,1.81,4.56,2.97,9.25,2.93,14.2-.04,5.67.16,11.35-.08,17.01-.27,6.3-1.95,12.3-5.39,17.66-4.16,6.49-10.26,10.19-17.76,11.56-6.42,1.17-12.92.83-19.37.36-4.66-.34-9.08-1.87-12.96-4.6-5.78-4.07-8.67-9.89-9.78-16.68-.42-2.59-.53-5.23-.61-7.86-.1-3.27-.02-6.55-.02-9.82h0Z"/><path d="m668.3,108.69c0-4.15-.02-8.3,0-12.46.01-2.05.15-2.19,2.19-2.2,6.88-.02,13.75-.03,20.63,0,2.1,0,2.24.17,2.25,2.4.02,6.39-.02,12.77.03,19.16.01,1.67.11,3.37.47,4.99,1.09,4.91,4.15,6.12,8.28,5.51,1.67-.25,3-1.29,3.64-2.84.66-1.6,1.22-3.3,1.46-5,.69-5.01.4-10.03-.38-15.02-.61-3.89-2.44-7.27-4.98-10.21-3.7-4.29-7.56-8.46-11.32-12.69-3.66-4.12-7.47-8.11-10.91-12.41-5.85-7.31-8.96-15.78-9.5-25.12-.28-4.93-.42-9.88-.38-14.82.03-3.92.72-7.77,2.19-11.45,3.63-9.01,10.62-13.82,19.92-15.29,7.44-1.18,14.96-1.12,22.41.27,10.64,1.99,15.92,8.69,17.37,18.67.41,2.83.51,5.72.55,8.58.08,5.67.04,11.34.02,17.01,0,2.32-.12,2.43-2.45,2.44-6.48.02-12.95.02-19.43,0-2.16,0-2.35-.19-2.37-2.31-.03-4.47.02-8.94-.03-13.41-.02-1.75-.14-3.51-.37-5.24-.39-3-2.31-4.73-5.26-4.94-3.1-.21-5.3,1.26-6.17,4.14-.09.31-.24.61-.26.92-.71,7.96-.41,15.7,5.1,22.21,3.2,3.78,6.53,7.44,9.76,11.19,4.74,5.5,9.62,10.9,14.13,16.59,4.5,5.7,7.69,12.13,8.94,19.38.38,2.19.7,4.42.74,6.64.1,5.11.18,10.22-.03,15.33-.23,5.45-1.36,10.76-3.73,15.73-3.76,7.87-9.96,12.9-18.49,14.55-8.04,1.56-16.24,1.61-24.28-.12-10.62-2.28-16.71-9.18-18.74-19.67-.63-3.27-.81-6.64-.96-9.98-.16-3.51-.04-7.02-.04-10.54h0Z"/><path d="m766.22,27.54h-7.32c-3.04,0-6.08.03-9.11-.01-1.71-.02-1.95-.24-1.96-1.96-.03-7.02-.03-14.05,0-21.07,0-1.73.25-1.89,1.97-1.98.56-.03,1.12,0,1.68,0h56.12c2.9.02,2.94.04,2.95,2.95.01,6.39,0,12.77,0,19.16v.96c-.1,1.73-.26,1.94-1.97,1.97-3.04.04-6.07.01-9.11.01h-7.06c-.21.75-.46,1.32-.51,1.92-.08.95-.05,1.91-.05,2.87v112.08c0,4.38.05,3.89-3.9,3.89-6.15,0-12.31,0-18.46,0-2.92,0-2.94,0-2.94-2.94V50.3c0-6.47.01-12.93-.01-19.4,0-1.01-.17-2.02-.29-3.35h-.03Z"/><path d="m995.49,75.26V6.04c0-2.37,1.17-3.55,3.51-3.55h18.23c.56,0,1.12.02,1.68,0,1.17-.04,1.81.47,1.79,1.69,0,.56.01,1.12.01,1.68v139.15q0,3.29-3.31,3.29h-18.23c-3.78,0-3.7.36-3.7-3.59v-69.46h.02Z"/></svg>