<?xml version="1.0" encoding="UTF-8"?>
<svg width="1200pt" height="1200pt" version="1.1" viewBox="0 0 1200 1200" xmlns="http://www.w3.org/2000/svg">
 <path d="m900 396h-600c-52.801 0-96-43.199-96-96s43.199-96 96-96h600c52.801 0 96 43.199 96 96s-43.199 96-96 96zm96 204c0-52.801-43.199-96-96-96h-600c-52.801 0-96 43.199-96 96s43.199 96 96 96h600c52.801 0 96-43.199 96-96zm0 300c0-52.801-43.199-96-96-96h-600c-52.801 0-96 43.199-96 96s43.199 96 96 96h600c52.801 0 96-43.199 96-96z" fill="#212022"/>
</svg>