<svg width="108" height="42" viewBox="0 0 108 42" fill="none" xmlns="http://www.w3.org/2000/svg">
<path d="M0.0076904 0.00978519H11.4499C11.4593 0.0644713 11.4726 0.112821 11.4749 0.161687C11.479 0.248061 11.4764 0.334751 11.4764 0.421308C11.4765 7.25935 11.4765 14.0974 11.4765 20.9354V21.24C11.5554 21.2895 11.5785 21.2257 11.6067 21.19C11.9442 20.7625 12.28 20.3336 12.6161 19.9049C17.7638 13.3382 22.9114 6.77152 28.0592 0.204988C28.1122 0.137334 28.1679 0.0717495 28.2254 0.0014657C31.1829 0.0014657 34.1353 0.00141181 37.0877 0.0021615C37.1204 0.00216942 37.1532 0.0126571 37.1738 0.0161758C37.1902 0.0338735 37.1974 0.0394558 37.2015 0.0467751C37.2056 0.0539138 37.2086 0.0628277 37.2086 0.0709633C37.2113 13.9546 37.2137 27.8383 37.2159 41.7219C37.2159 41.7564 37.2138 41.7911 37.209 41.8251C37.2067 41.8409 37.1956 41.8554 37.1809 41.8868C37.1408 41.8915 37.0914 41.8999 37.0418 41.9024C36.9815 41.9054 36.9209 41.9034 36.8605 41.9034C33.2948 41.9034 29.7291 41.9034 26.1634 41.9031C26.061 41.9031 25.9585 41.8994 25.8409 41.8971C25.8301 41.8392 25.8158 41.7914 25.8133 41.743C25.809 41.6567 25.8116 41.57 25.8116 41.4834C25.8116 34.983 25.8116 28.4825 25.8116 21.982C25.8116 21.8802 25.8116 21.7783 25.8116 21.6798C25.7105 21.6532 25.6922 21.7277 25.658 21.7696C25.2102 22.3193 24.7644 22.8705 24.318 23.4214C19.9309 28.836 15.5437 34.2507 11.1566 39.6654C10.5959 40.3573 10.0354 41.0494 9.47463 41.7412C9.41503 41.8148 9.35372 41.8869 9.3002 41.9513C9.05514 41.9792 0.267612 41.9782 0.0275325 41.9497C0.0195852 41.9071 0.00562099 41.8594 0.00276427 41.8109C-0.00181405 41.7333 0.000675886 41.6552 0.000675886 41.5773C0.000633202 27.8493 0.000617392 14.1213 0.000908281 0.393317C0.000911443 0.273625 0.00503921 0.153933 0.0076904 0.00978519Z" fill="white"/>
<path d="M73.274 0.00244143C84.4983 0.00244143 95.6854 0.00242558 106.873 0.00321331C106.905 0.00321648 106.937 0.0149326 106.981 0.023485C106.987 0.0720976 106.993 0.11334 106.995 0.154757C107.022 1.05321 107.005 9.80355 106.973 10.06C106.93 10.0672 106.881 10.0798 106.833 10.082C106.747 10.0858 106.66 10.0834 106.574 10.0834C99.4603 10.0834 92.3469 10.0834 85.2334 10.0834H84.8881C84.8741 10.1437 84.8569 10.1911 84.8534 10.2396C84.8478 10.3171 84.8512 10.3953 84.8512 10.4732C84.8512 17.4837 84.851 24.4943 84.8522 31.5048C84.8523 31.624 84.8307 31.7465 84.8746 31.8559C84.8895 31.8664 84.8958 31.872 84.903 31.8755C84.9107 31.8793 84.9191 31.8819 84.9275 31.8838C84.9358 31.8857 84.9445 31.8862 84.953 31.887C84.9616 31.8879 84.9702 31.8885 84.9789 31.8888C84.9875 31.8892 84.9961 31.8892 85.0047 31.8893C85.0134 31.8894 85.022 31.8896 85.0306 31.8896C85.0393 31.8897 85.0479 31.8897 85.0565 31.8897C85.0652 31.8897 85.0738 31.8898 85.0824 31.8898C85.0911 31.8898 85.0997 31.8898 85.1083 31.8898L85.1342 31.8898C85.1429 31.8898 85.1515 31.8898 85.1601 31.8898C92.3427 31.8898 99.5252 31.8898 106.708 31.8898C106.716 31.8898 106.725 31.8898 106.734 31.8898C106.742 31.8898 106.751 31.8898 106.76 31.8898C106.768 31.8899 106.777 31.8899 106.785 31.8899C106.794 31.8899 106.803 31.8899 106.811 31.89C106.82 31.8901 106.829 31.8901 106.837 31.8903C106.846 31.8904 106.855 31.8906 106.863 31.8909C106.872 31.8911 106.88 31.8914 106.889 31.8921C106.898 31.8929 106.906 31.894 106.915 31.8955C106.923 31.8971 106.932 31.8985 106.94 31.9017C106.947 31.9047 106.954 31.91 106.978 31.9247C106.983 31.9616 106.992 32.0107 106.994 32.0602C106.998 32.1206 106.996 32.1813 106.996 32.2419C106.996 35.3663 106.996 38.4908 106.996 41.6152V41.9372C106.937 41.9503 106.89 41.9671 106.842 41.9704C106.765 41.9757 106.687 41.9722 106.609 41.9722C95.6195 41.9722 84.6298 41.9723 73.6402 41.9721C73.5292 41.9721 73.4182 41.9693 73.2944 41.9677C73.2848 41.9059 73.2731 41.8573 73.2707 41.8083C73.2669 41.7306 73.2693 41.6526 73.2693 41.5747C73.2693 27.8478 73.2693 14.121 73.2695 0.394185C73.2695 0.27459 73.2722 0.154996 73.274 0.00244143Z" fill="white"/>
<path d="M43.8735 16.9839C44.5032 16.9839 45.0982 16.9839 45.6933 16.9839H54.5763C55.1633 16.9839 55.7504 16.984 56.3374 16.9839C56.9305 16.9839 57.5237 16.9842 58.1122 16.9837C58.1291 16.9317 58.1435 16.908 58.1435 16.8843C58.1446 14.6514 58.1446 12.4184 58.1437 10.1855C58.1437 10.1617 58.1298 10.1378 58.1179 10.0989C58.0702 10.0939 58.0208 10.0857 57.9713 10.0842C57.885 10.0817 57.7986 10.0833 57.7123 10.0833C52.1615 10.0832 46.6106 10.0833 41.0598 10.0825C40.9499 10.0825 40.8375 10.0989 40.7184 10.0584C40.7125 10.0133 40.7036 9.97208 40.7021 9.93064C40.6743 9.1394 40.6928 0.270587 40.7244 0.0246113C40.7674 0.0173981 40.8154 0.00477387 40.8639 0.00225536C40.9414 -0.00176412 41.0193 0.000814623 41.097 0.000813038C50.5239 0.000795604 59.9508 0.000778169 69.3777 0.00102542C69.4971 0.00102859 69.6165 0.00446163 69.751 0.00652526C69.7606 0.0696054 69.7722 0.117991 69.7746 0.166829C69.7784 0.244546 69.7763 0.322566 69.7763 0.400458C69.7764 14.127 69.7764 27.8536 69.7761 41.5802C69.7761 41.6997 69.7715 41.8192 69.7688 41.9482C69.7022 41.9577 69.653 41.9683 69.6033 41.9709C69.5345 41.9744 69.4653 41.972 69.3962 41.972C65.7705 41.9721 62.1447 41.9721 58.519 41.9719C58.4079 41.9719 58.2968 41.9697 58.1738 41.9684C58.1636 41.9063 58.1508 41.8577 58.1486 41.8087C58.1447 41.7224 58.1472 41.6357 58.1472 41.5491C58.1472 36.6505 58.1472 31.7519 58.1469 26.8532C58.1469 26.742 58.1439 26.6308 58.142 26.5053C58.0816 26.4953 58.0334 26.4826 57.9848 26.4804C57.8987 26.4765 57.8122 26.4789 57.7259 26.4789C53.2282 26.4788 48.7306 26.479 44.233 26.4782C44.1225 26.4782 44.0102 26.4922 43.8881 26.4577C43.8801 26.4063 43.8689 26.3574 43.8656 26.308C43.8617 26.2476 43.8643 26.1869 43.8643 26.1263C43.8643 23.1923 43.8642 20.2583 43.8647 17.3243C43.8647 17.2221 43.8698 17.1199 43.8735 16.9839Z" fill="white"/>
</svg>
