<svg width="181" height="42" viewBox="0 0 181 42" fill="none" xmlns="http://www.w3.org/2000/svg">
<path fill-rule="evenodd" clip-rule="evenodd" d="M78.6927 31.9149L69.5975 18.2714V31.9149H65.5552V12.1319H70.2291L78.8191 25.0426V12.1319H82.8614V31.9149H78.6927ZM85.2695 25.1942C85.2695 21.177 88.5791 18.1198 92.672 18.1198C96.7396 18.1198 99.9987 21.1012 99.9987 25.1184C99.9987 29.1862 96.6891 32.2181 92.6215 32.2181C88.5286 32.2181 85.2695 29.262 85.2695 25.1942ZM89.3118 25.1437C89.3118 27.1902 90.8024 28.6051 92.6467 28.6051C94.491 28.6051 95.9564 27.1902 95.9564 25.1437C95.9564 23.1224 94.4658 21.7076 92.6215 21.7076C90.7772 21.7076 89.3118 23.1224 89.3118 25.1437ZM109.662 18.423V22.2887C109.131 22.1876 108.575 22.1876 108.398 22.1876C106.504 22.1876 105.19 23.5014 105.19 26.0027V31.9149H101.324V18.423H105.064V20.3937H105.114C105.847 18.8525 107.211 18.2714 108.601 18.2714C108.904 18.2714 109.384 18.3472 109.662 18.423ZM121.045 31.9149V30.1968H120.995C119.732 32.0412 117.71 32.1675 116.801 32.1675C112.885 32.1675 110.384 28.7819 110.384 25.1437C110.384 21.7328 112.986 18.1704 116.851 18.1704C117.635 18.1704 119.504 18.322 120.894 19.9642H120.944V11.3486H124.86V31.9149H121.045ZM121.045 25.1437C121.045 23.1224 119.555 21.7328 117.71 21.7328C115.866 21.7328 114.376 23.1224 114.376 25.1437C114.376 27.1902 115.866 28.6051 117.71 28.6051C119.555 28.6051 121.045 27.1902 121.045 25.1437ZM133.236 31.9149L126.086 12.1319H130.508L135.636 27.1649L140.79 12.1319H145.136L137.961 31.9149H133.236ZM161.243 18.4736C161.243 22.8445 158.16 24.9416 154.017 24.9416H150.909V31.9149H146.817V12.1319H154.169C158.135 12.1319 161.243 14.2795 161.243 18.4736ZM157.124 18.5746C157.124 16.6544 155.508 15.9975 153.815 15.9975H150.909V21.1264H153.84C155.457 21.1264 157.124 20.419 157.124 18.5746ZM176.44 31.9149L167.345 18.2714V31.9149H163.302V12.1319H167.976L176.566 25.0426V12.1319H180.609V31.9149H176.44Z" fill="white"/>
<path fill-rule="evenodd" clip-rule="evenodd" d="M4.93381 41.2229C1.8303 36.9409 0 31.6722 0 25.9752C0 11.6295 11.6055 0 25.9217 0C40.2379 0 51.8434 11.6295 51.8434 25.9752C51.8434 31.6722 50.0132 36.9408 46.9097 41.2228L34.4595 20.9635L33.2572 22.9976L34.477 28.6549L25.9217 13.9866L20.6294 22.9406L21.8615 28.6549L17.3771 20.9751L4.93381 41.2229Z" fill="white"/>
</svg>
